<svg viewBox="0 0 701 161" preserveAspectRatio="xMidYMid meet" fill="none" xmlns="http://www.w3.org/2000/svg">
<path d="M521.46 46.1211H470.43V118.101H521.45C535.53 118.101 546.98 106.651 546.98 92.5711V71.6311C546.98 57.5611 535.53 46.1211 521.46 46.1211ZM533.87 89.9411C533.87 98.1111 527.23 104.751 519.06 104.751H483.56V59.2211H519.06C527.23 59.2211 533.87 65.8611 533.87 74.0311V89.9411Z" fill="#5B6666"/>
<path d="M239.511 81.7618C235.431 77.4918 230.881 75.5118 225.161 75.5118H189.551C187.871 75.5118 186.401 74.9118 185.211 73.7418C184.011 72.5618 183.401 71.0919 183.401 69.4019V65.3718C183.401 63.6718 184.011 62.2119 185.211 61.0319C186.411 59.8519 187.871 59.2618 189.561 59.2618H242.551V46.1318H189.561C183.991 46.1318 178.731 48.4118 175.151 52.3918C171.541 56.3918 169.781 61.3118 169.781 67.4318V67.3419C169.781 71.5119 170.561 77.3619 175.171 82.4019C179.111 86.7119 184.181 88.5918 189.571 88.6418H225.181C226.851 88.6418 228.311 89.2518 229.521 90.4518C230.721 91.6518 231.331 93.1018 231.331 94.7518V98.6918C231.331 100.342 230.721 101.772 229.521 102.952C228.311 104.132 226.851 104.732 225.171 104.732H172.181V117.922H225.171C231.121 117.922 236.231 115.262 239.531 111.642C244.051 106.682 244.911 101.192 244.911 96.6418V96.7819C244.911 92.1919 243.911 86.3318 239.521 81.7518L239.511 81.7618Z" fill="#5B6666"/>
<path d="M349.094 46.1211V118.101H362.204V46.1211H349.094Z" fill="#5B6666"/>
<path d="M454.108 104.741V118.101H398.108C397.948 118.101 397.788 118.101 397.638 118.101C397.538 118.101 397.438 118.101 397.338 118.101C386.638 118.101 377.918 109.581 377.598 98.9611C377.598 98.7111 377.578 98.4511 377.578 98.1811V46.1211H390.688V95.3611C390.688 95.9311 390.688 97.9111 390.688 98.2211C390.688 101.831 393.628 104.761 397.228 104.761C397.458 104.761 400.238 104.761 401.008 104.761H454.128L454.108 104.741Z" fill="#5B6666"/>
<path d="M671.411 46.1216V118.102H658.301V59.3216H651.361C651.261 59.3216 651.181 59.3216 651.081 59.3216C650.131 59.3816 649.261 59.7615 648.591 60.3615C648.511 60.4315 648.431 60.5016 648.351 60.5816C648.101 60.8416 647.281 62.0316 647.091 62.3416L641.401 71.1615L611.101 118.082H595.641L636.771 54.0016C637.161 53.3816 637.581 52.7915 638.041 52.2215C640.371 48.7715 644.211 46.4216 648.611 46.1216C648.911 46.1216 649.221 46.1016 649.521 46.1016C649.821 46.1016 650.111 46.1016 650.401 46.1316C650.711 46.1116 651.031 46.1016 651.341 46.1016H671.421L671.411 46.1216Z" fill="#5B6666"/>
<path d="M687.75 46.1211V118.101H700.86V46.1211H687.75Z" fill="#5B6666"/>
<path d="M272.063 46.1211H258.953V118.091H272.063V46.1211Z" fill="#5B6666"/>
<path d="M334.999 117.861H320.019C320.019 117.861 304.299 93.2213 304.179 93.0413C302.839 91.0913 300.879 89.5813 298.579 88.8113C297.479 88.4413 296.299 88.2413 295.069 88.2413C294.819 88.2413 294.579 88.2414 294.339 88.2614C293.899 88.2614 293.429 88.2413 292.929 88.2413H279.539V75.9813H292.929C294.179 75.9813 295.269 75.9213 296.239 75.8113C296.309 75.8113 297.279 75.6614 297.339 75.6514C300.049 75.0914 302.389 73.5613 303.969 71.4313C304.189 71.1313 319.959 46.3613 319.959 46.3613H334.939L313.549 79.9313C312.689 81.2613 312.689 82.9713 313.549 84.3013L334.989 117.861H334.999Z" fill="#5B6666"/>
<path d="M89.598 80.4197H74.958C63.668 80.4197 54.728 71.6097 54.728 60.5997C54.728 53.1597 54.818 44.9797 54.818 43.8597C54.748 41.6897 52.978 39.9397 50.818 39.9397C49.088 39.9397 46.818 41.2397 46.818 43.9397C46.808 43.9997 46.568 61.1997 46.478 75.0097C46.468 77.2397 43.778 78.4797 42.108 76.8497C32.858 67.8297 17.128 52.4897 10.358 45.8897C6.00803 41.6497 3.81802 35.6697 3.86802 29.6097C3.91802 24.3897 3.97803 17.6497 4.02803 11.1197C4.07803 5.19969 8.88803 0.429688 14.808 0.429688H30.248C35.878 0.429688 41.278 2.68969 45.228 6.70969L46.308 7.80969C59.888 21.6097 82.038 44.2097 98.088 60.5797C105.408 68.0497 100.058 80.4297 89.608 80.4297L89.598 80.4197Z" fill="url(#paint0_linear_3169_30802)"/>
<path d="M12.0762 80.4163H26.7162C38.0062 80.4163 46.9462 89.2263 46.9462 100.236C46.9462 107.676 46.8562 115.856 46.8562 116.976C46.9262 119.146 48.6962 120.896 50.8562 120.896C52.5862 120.896 54.8562 119.596 54.8562 116.896C54.8662 116.836 55.1062 99.6363 55.1962 85.8263C55.2062 83.5963 57.8962 82.3563 59.5662 83.9863C68.8162 93.0063 84.5462 108.346 91.3162 114.946C95.6662 119.186 97.8562 125.166 97.8062 131.226C97.7562 136.446 97.6962 143.186 97.6462 149.716C97.5962 155.636 92.7862 160.406 86.8662 160.406H71.4262C65.7962 160.406 60.3962 158.146 56.4462 154.126L55.3662 153.026C41.7862 139.226 19.6362 116.626 3.58617 100.256C-3.73383 92.7863 1.61618 80.4062 12.0662 80.4062L12.0762 80.4163Z" fill="url(#paint1_linear_3169_30802)"/>
<defs>
<linearGradient id="paint0_linear_3169_30802" x1="1.15803" y1="10.4497" x2="82.138" y2="69.8397" gradientUnits="userSpaceOnUse">
<stop stop-color="#C3DECF"/>
<stop offset="0.21" stop-color="#BDD8CA"/>
<stop offset="0.49" stop-color="#ADCABE"/>
<stop offset="0.8" stop-color="#92B3AB"/>
<stop offset="1" stop-color="#7DA09B"/>
</linearGradient>
<linearGradient id="paint1_linear_3169_30802" x1="6.83617" y1="79.1162" x2="97.9762" y2="150.436" gradientUnits="userSpaceOnUse">
<stop offset="0.05" stop-color="#BCDDD1"/>
<stop offset="0.42" stop-color="#92B3AB"/>
<stop offset="0.75" stop-color="#749690"/>
<stop offset="0.93" stop-color="#698B86"/>
</linearGradient>
</defs>
</svg>
